<?xml version="1.0" encoding="UTF-8" standalone="no"?>
<!DOCTYPE svg PUBLIC "-//W3C//DTD SVG 1.1//EN" "http://www.w3.org/Graphics/SVG/1.1/DTD/svg11.dtd">
<svg width="100%" height="100%" viewBox="0 0 145 145" version="1.1" xmlns="http://www.w3.org/2000/svg" xmlns:xlink="http://www.w3.org/1999/xlink" xml:space="preserve" xmlns:serif="http://www.serif.com/" style="fill-rule:evenodd;clip-rule:evenodd;stroke-linejoin:round;stroke-miterlimit:2;">
    <g transform="matrix(0.276815,0,0,0.276821,1.34277,1.1811)">
        <path d="M495,225.06L477.78,226.14C472.51,186.65 456.99,150.5 433.92,120.3L446.87,108.87C453.79,102.76 454.12,92.08 447.6,85.56L426.44,64.4C419.91,57.87 409.23,58.21 403.13,65.13L391.7,78.07C361.5,55.01 325.35,39.49 285.87,34.21L286.94,17C287.52,7.79 280.2,0 270.97,0L241.03,0C231.8,0 224.49,7.79 225.06,17L226.14,34.22C186.65,39.49 150.5,55.01 120.31,78.08L108.88,65.13C102.77,58.21 92.09,57.88 85.57,64.4L64.4,85.56C57.87,92.09 58.21,102.77 65.13,108.87L78.08,120.3C55.02,150.5 39.5,186.65 34.22,226.14L17,225.06C7.79,224.48 0,231.8 0,241.03L0,270.97C0,280.2 7.79,287.51 17,286.94L34.22,285.86C39.49,325.35 55.01,361.5 78.08,391.69L65.13,403.12C58.21,409.23 57.88,419.91 64.4,426.43L85.57,447.6C92.1,454.13 102.78,453.79 108.88,446.87L120.31,433.92C150.51,456.98 186.66,472.5 226.15,477.78L225.06,495C224.48,504.21 231.8,512 241.03,512L270.97,512C280.2,512 287.51,504.21 286.94,495L285.86,477.78C325.35,472.51 361.5,456.99 391.7,433.92L403.13,446.87C409.24,453.79 419.92,454.12 426.44,447.6L447.61,426.43C454.14,419.9 453.8,409.22 446.88,403.12L433.93,391.69C456.99,361.49 472.51,325.34 477.79,285.86L495.01,286.94C504.22,287.52 512.01,280.2 512.01,270.97L512.01,241.03C512,231.8 504.21,224.49 495,225.06ZM281.84,98.61C306.65,102.68 329.47,112.27 349.07,126.39L306.45,174.68C297.72,169.24 288.13,165.14 277.83,162.73L281.84,98.61ZM230.16,98.61L234.17,162.73C223.88,165.14 214.28,169.25 205.55,174.68L162.93,126.39C182.53,112.27 205.35,102.68 230.16,98.61ZM126.39,162.94L174.69,205.55C169.25,214.28 165.15,223.88 162.73,234.17L98.61,230.16C102.68,205.35 112.27,182.54 126.39,162.94ZM98.61,281.84L162.73,277.83C165.14,288.12 169.25,297.72 174.68,306.45L126.39,349.07C112.27,329.47 102.68,306.65 98.61,281.84ZM230.16,413.39C205.35,409.32 182.53,399.73 162.93,385.61L205.54,337.31C214.27,342.75 223.87,346.85 234.16,349.27L230.16,413.39ZM256,288C238.33,288 224,273.67 224,256C224,238.33 238.33,224 256,224C273.67,224 288,238.33 288,256C288,273.67 273.67,288 256,288ZM281.84,413.39L277.83,349.27C288.12,346.86 297.72,342.75 306.45,337.31L349.06,385.61C329.46,399.73 306.65,409.32 281.84,413.39ZM385.61,349.06L337.32,306.44C342.76,297.71 346.86,288.12 349.27,277.82L413.39,281.83C409.32,306.65 399.73,329.47 385.61,349.06ZM349.27,234.17C346.86,223.88 342.75,214.28 337.31,205.55L385.61,162.94C399.73,182.54 409.32,205.36 413.39,230.17L349.27,234.17Z" style="fill:rgb(121,121,121);fill-rule:nonzero;"/>
    </g>
</svg>
